<svg preserveAspectRatio="none" width="100%" height="100%" overflow="visible" style="display: block;" viewBox="0 0 18 18" fill="none" xmlns="http://www.w3.org/2000/svg">
<path id="Vector" d="M18.0006 1V14C18.0006 14.2652 17.8952 14.5196 17.7077 14.7071C17.5201 14.8946 17.2658 15 17.0006 15C16.7353 15 16.481 14.8946 16.2935 14.7071C16.1059 14.5196 16.0006 14.2652 16.0006 14V3.41375L1.70806 17.7075C1.52042 17.8951 1.26592 18.0006 1.00056 18.0006C0.735192 18.0006 0.480697 17.8951 0.293056 17.7075C0.105415 17.5199 0 17.2654 0 17C0 16.7346 0.105415 16.4801 0.293056 16.2925L14.5868 2H4.00056C3.73534 2 3.48099 1.89464 3.29345 1.70711C3.10591 1.51957 3.00056 1.26522 3.00056 1C3.00056 0.734784 3.10591 0.48043 3.29345 0.292893C3.48099 0.105357 3.73534 0 4.00056 0H17.0006C17.2658 0 17.5201 0.105357 17.7077 0.292893C17.8952 0.48043 18.0006 0.734784 18.0006 1Z" fill="var(--fill-0, #E2E4E9)"/>
</svg>
